<svg width="18" height="17" viewBox="0 0 18 17" fill="none" xmlns="http://www.w3.org/2000/svg">
<path d="M15.2929 7.79289C15.4804 7.60536 15.7348 7.5 16 7.5C16.2652 7.5 16.5196 7.60536 16.7071 7.79289C16.8946 7.98043 17 8.23478 17 8.5V14C17 14.7956 16.6839 15.5587 16.1213 16.1213C15.5587 16.6839 14.7956 17 14 17H3C2.20435 17 1.44129 16.6839 0.87868 16.1213C0.316071 15.5587 0 14.7956 0 14V3C0 2.20435 0.316071 1.44129 0.87868 0.87868C1.44129 0.316071 2.20435 0 3 0H12.18C12.4452 0 12.6996 0.105357 12.8871 0.292893C13.0746 0.48043 13.18 0.734784 13.18 1C13.18 1.26522 13.0746 1.51957 12.8871 1.70711C12.6996 1.89464 12.4452 2 12.18 2H3C2.73478 2 2.48043 2.10536 2.29289 2.29289C2.10536 2.48043 2 2.73478 2 3V14C2 14.2652 2.10536 14.5196 2.29289 14.7071C2.48043 14.8946 2.73478 15 3 15H14C14.2652 15 14.5196 14.8946 14.7071 14.7071C14.8946 14.5196 15 14.2652 15 14V8.5C15 8.23478 15.1054 7.98043 15.2929 7.79289Z" fill="#A9A9A9"/>
<path d="M16.4065 2.07691C16.5284 2.12768 16.639 2.20207 16.7319 2.2958C16.8334 2.38944 16.9144 2.50309 16.9698 2.62959C17.0252 2.75609 17.0539 2.8927 17.0539 3.0308C17.0539 3.1689 17.0252 3.30551 16.9698 3.432C16.9144 3.5585 16.8334 3.67216 16.7319 3.7658L8.57192 11.9258C8.47896 12.0195 8.36836 12.0939 8.2465 12.1447C8.12464 12.1955 7.99393 12.2216 7.86192 12.2216C7.72991 12.2216 7.59921 12.1955 7.47735 12.1447C7.35549 12.0939 7.24489 12.0195 7.15192 11.9258L3.31192 8.0858C3.2154 7.99256 3.13819 7.88122 3.0847 7.75814C3.0312 7.63507 3.00247 7.50266 3.00015 7.36848C2.99783 7.2343 3.02196 7.10097 3.07117 6.97612C3.12037 6.85126 3.19368 6.73732 3.28692 6.6408C3.38016 6.54428 3.4915 6.46706 3.61458 6.41357C3.73765 6.36008 3.87006 6.33135 4.00424 6.32903C4.13843 6.32671 4.27175 6.35084 4.3966 6.40004C4.52146 6.44925 4.6354 6.52256 4.73192 6.6158L7.86192 9.7558L15.3119 2.2958C15.4049 2.20207 15.5155 2.12768 15.6373 2.07691C15.7592 2.02614 15.8899 2 16.0219 2C16.1539 2 16.2846 2.02614 16.4065 2.07691Z" fill="#A9A9A9"/>
</svg>
